<svg width="164" height="40" viewBox="0 0 164 40" fill="none" xmlns="http://www.w3.org/2000/svg">
<path d="M27.6461 24.7817C19.6497 29.8017 6.42967 28.3276 1.40685 20.8772C-3.81688 12.112 6.5904 2.58988 14.868 1.59384C9.24245 3.4664 1.5274 10.9965 5.74657 18.5265C10.8498 26.2957 19.6497 26.8136 27.6461 24.7817Z" fill="#BB8B41"/>
<path d="M11.854 21.5547C11.5325 12.0326 19.6092 1.11596 28.4896 0.478497C38.5754 0.279289 41.5489 14.184 38.2539 21.9532C40.6247 10.5186 34.7581 5.53838 28.3289 5.49854C19.1672 6.05633 14.1042 13.5067 11.854 21.5547Z" fill="#BB8B41"/>
<path d="M22.6235 9.44348C30.9012 13.9456 36.1651 26.4559 32.3075 34.5836C27.4053 43.5479 14.0647 39.2052 9.08203 32.3923C13.5021 36.4163 23.7888 39.4044 28.0884 31.9142C32.2272 23.5873 28.3696 15.4596 22.6235 9.44348Z" fill="#BB8B41"/>
<path d="M62.7654 18.2475C62.8859 18.2475 62.9663 18.2873 63.0467 18.367L63.6494 19.0045C63.2074 19.4826 62.7252 19.9208 62.1626 20.2794C61.6403 20.6778 61.0375 20.9965 60.4348 21.2754C59.7919 21.5543 59.1088 21.7535 58.3453 21.9129C57.5818 22.0723 56.7782 22.152 55.854 22.152C54.327 22.152 52.9608 21.8731 51.7152 21.3551C50.4695 20.8372 49.3846 20.0802 48.4604 19.124C47.5362 18.1678 46.8531 17.0124 46.3709 15.6179C45.8887 14.2633 45.6074 12.7493 45.6074 11.076C45.6074 9.44247 45.8485 7.92849 46.3709 6.57387C46.8933 5.21926 47.6166 4.06385 48.5407 3.06781C49.4649 2.11161 50.5901 1.35462 51.8759 0.796833C53.1617 0.278892 54.6083 0 56.1754 0C57.6622 0 58.9882 0.239049 60.1535 0.677307C61.3188 1.15541 62.3636 1.79287 63.2878 2.62955L62.8056 3.3467C62.7252 3.46622 62.6046 3.5459 62.4037 3.5459C62.2832 3.5459 62.0823 3.42638 61.801 3.22717C61.5197 2.98812 61.1179 2.74907 60.6357 2.47018C60.1535 2.19129 59.5106 1.95224 58.7873 1.71319C58.064 1.47414 57.18 1.39446 56.1352 1.39446C54.8092 1.39446 53.6037 1.63351 52.5188 2.07176C51.4339 2.51002 50.4695 3.14749 49.706 3.98417C48.9024 4.82084 48.2997 5.85672 47.8576 7.05197C47.4156 8.24722 47.2147 9.60184 47.2147 11.1158C47.2147 12.6298 47.4558 14.0243 47.8978 15.2195C48.3398 16.4148 48.9426 17.4506 49.7462 18.2873C50.5097 19.124 51.4339 19.7615 52.5188 20.1997C53.5636 20.638 54.7289 20.877 55.9745 20.877C56.738 20.877 57.4613 20.8372 58.064 20.7177C58.6668 20.5981 59.2293 20.4786 59.7517 20.2396C60.2741 20.0403 60.7562 19.8013 61.1983 19.4826C61.6403 19.2037 62.0823 18.8451 62.5243 18.4467C62.5645 18.4068 62.6448 18.367 62.685 18.367C62.685 18.2873 62.7252 18.2475 62.7654 18.2475Z" fill="white"/>
<path d="M84.4638 21.9125H83.2584C83.0976 21.9125 82.9771 21.8726 82.8967 21.793C82.8164 21.7133 82.736 21.6336 82.6958 21.5141L80.1241 15.2191H69.3954L66.8237 21.5141C66.7835 21.6336 66.7031 21.7133 66.6228 21.793C66.5022 21.8726 66.3817 21.9125 66.2611 21.9125H65.0557L73.9762 0.278473H75.5433L84.4638 21.9125ZM79.6419 14.0238L75.1817 3.10723C75.0209 2.74865 74.8602 2.3104 74.7397 1.8323C74.6593 2.07134 74.6191 2.31039 74.5388 2.5096C74.4584 2.74865 74.378 2.94786 74.2977 3.10723L69.8374 14.0238H79.6419Z" fill="white"/>
<path d="M93.7457 0.278473C96.3174 0.278473 98.2461 0.836255 99.532 1.95182C100.818 3.06739 101.501 4.66105 101.501 6.69297C101.501 7.64917 101.34 8.52569 100.979 9.32253C100.617 10.1194 100.095 10.7967 99.4516 11.3943C98.7685 11.9521 97.9648 12.4302 97.0005 12.7489C96.0361 13.0676 94.9512 13.227 93.7859 13.227H89.7274V21.9523H88.1201V0.318311H93.7457V0.278473ZM93.7457 11.9122C94.7101 11.9122 95.5539 11.7927 96.3174 11.5138C97.0808 11.2349 97.7238 10.8764 98.2461 10.3983C98.7685 9.92016 99.1703 9.36237 99.4516 8.7249C99.7329 8.08743 99.8936 7.41012 99.8936 6.65313C99.8936 4.97978 99.3712 3.70485 98.3667 2.82834C97.3219 1.91198 95.795 1.47372 93.7457 1.47372H89.6872V11.9122H93.7457Z" fill="white"/>
<path d="M107.488 21.9125H105.881V0.278473H107.488V21.9125Z" fill="white"/>
<path d="M128.143 1.59325H120.468V21.9125H118.861V1.59325H111.146V0.278473H128.103V1.59325H128.143Z" fill="white"/>
<path d="M146.265 21.9125H145.059C144.898 21.9125 144.778 21.8726 144.697 21.793C144.617 21.7133 144.537 21.6336 144.497 21.5141L141.925 15.2191H131.196L128.624 21.5141C128.584 21.6336 128.504 21.7133 128.424 21.793C128.303 21.8726 128.182 21.9125 128.062 21.9125H126.856L135.777 0.278473H137.344L146.265 21.9125ZM141.443 14.0238L136.982 3.10723C136.822 2.74865 136.661 2.3104 136.54 1.8323C136.46 2.07134 136.42 2.31039 136.34 2.5096C136.259 2.74865 136.179 2.94786 136.098 3.10723L131.638 14.0238H141.443Z" fill="white"/>
<path d="M161.815 20.5586V21.8734H149.881V0.239349H151.488V20.5586H161.815Z" fill="white"/>
<path d="M49.184 39.6818H48.2598V33.586H49.184V39.6818Z" fill="white"/>
<path d="M56.5776 33.5854V39.6812H56.0955C56.0151 39.6812 55.9749 39.6812 55.9347 39.6414C55.8945 39.6015 55.8544 39.5617 55.774 39.5219L52.3183 35.0596C52.3183 35.1393 52.3183 35.219 52.3183 35.2986C52.3183 35.3783 52.3183 35.458 52.3183 35.4979V39.6812H51.5146V33.5854H51.9968C52.0772 33.5854 52.1174 33.5855 52.1576 33.6253C52.1978 33.6253 52.2379 33.705 52.2781 33.7448L55.774 38.2071C55.774 38.1274 55.774 38.0477 55.774 37.968C55.774 37.8883 55.774 37.8087 55.774 37.7688V33.6253H56.5776V33.5854Z" fill="white"/>
<path d="M63.1276 34.3424H61.1988V39.6812H60.2746V34.3424H58.3057V33.5854H63.1276V34.3424Z" fill="white"/>
<path d="M68.7128 38.9641V39.6812H64.8955V33.5854H68.7128V34.3026H65.8197V36.215H68.1503V36.9321H65.8197V38.9242H68.7128V38.9641Z" fill="white"/>
<path d="M75.3026 39.6812H74.499C74.3383 39.6812 74.2177 39.6015 74.1373 39.482L72.6104 37.3704C72.5702 37.2907 72.4899 37.2509 72.4497 37.211C72.4095 37.1712 72.2889 37.1712 72.2086 37.1712H71.6058V39.6812H70.6816V33.5854H72.4497C72.8515 33.5854 73.173 33.6253 73.4944 33.705C73.7757 33.7847 74.0168 33.9042 74.2177 34.0636C74.4186 34.2229 74.5392 34.3823 74.6195 34.5815C74.6999 34.7807 74.7401 35.0198 74.7401 35.2986C74.7401 35.4979 74.6999 35.6971 74.6597 35.8963C74.5793 36.0955 74.499 36.2548 74.3784 36.4142C74.2579 36.5736 74.0972 36.6931 73.8962 36.8126C73.6953 36.9322 73.4944 37.0118 73.2935 37.0517C73.4141 37.1314 73.4944 37.211 73.5748 37.3306L75.3026 39.6812ZM72.4095 36.5337C72.6506 36.5337 72.8515 36.4939 73.0122 36.4541C73.173 36.4142 73.3337 36.3345 73.4542 36.215C73.5748 36.0955 73.6552 35.976 73.7355 35.8564C73.8159 35.7369 73.8159 35.5377 73.8159 35.3783C73.8159 35.0197 73.6953 34.7807 73.4542 34.5815C73.2131 34.4221 72.8917 34.3026 72.4095 34.3026H71.5656V36.5337H72.4095Z" fill="white"/>
<path d="M81.973 33.5854V39.6812H81.531C81.4506 39.6812 81.4105 39.6812 81.3703 39.6414C81.3301 39.6015 81.2899 39.5617 81.2095 39.5219L77.7538 35.0596C77.7538 35.1393 77.7538 35.219 77.7538 35.2986C77.7538 35.3783 77.7538 35.458 77.7538 35.4979V39.6812H76.9502V33.5854H77.4324C77.5127 33.5854 77.5529 33.5855 77.5931 33.6253C77.6333 33.6253 77.6735 33.705 77.7137 33.7448L81.2095 38.2071C81.2095 38.1274 81.2095 38.0477 81.2095 37.968C81.2095 37.8883 81.2095 37.8087 81.2095 37.7688V33.6253H81.973V33.5854Z" fill="white"/>
<path d="M89.4065 39.6821H88.7234C88.6431 39.6821 88.5627 39.6821 88.5225 39.6423C88.4823 39.6024 88.4422 39.5626 88.402 39.4829L87.8394 38.0884H85.1472L84.5846 39.4829C84.5846 39.5227 84.5445 39.6024 84.4641 39.6423C84.4239 39.6821 84.3435 39.7219 84.2632 39.7219H83.5801L86.0312 33.6262H86.9554L89.4065 39.6821ZM87.5983 37.4111L86.6741 35.0605C86.5938 34.9011 86.5536 34.7019 86.4732 34.4628C86.433 34.5824 86.3929 34.7019 86.3929 34.8214C86.3527 34.9409 86.3125 35.0206 86.3125 35.1003L85.3883 37.451H87.5983V37.4111Z" fill="white"/>
<path d="M94.6307 34.3424H92.6617V39.6812H91.7375V34.3424H89.7686V33.5854H94.5905V34.3424H94.6307Z" fill="white"/>
<path d="M97.2826 39.6812H96.3584V33.5854H97.2826V39.6812Z" fill="white"/>
<path d="M105.36 36.6538C105.36 37.0921 105.279 37.5304 105.159 37.8889C104.998 38.2873 104.797 38.6061 104.556 38.885C104.275 39.1639 103.953 39.3631 103.592 39.5224C103.23 39.6818 102.788 39.7615 102.346 39.7615C101.904 39.7615 101.462 39.6818 101.1 39.5224C100.739 39.3631 100.417 39.1639 100.136 38.885C99.8546 38.6061 99.6536 38.2873 99.5331 37.8889C99.4125 37.4905 99.292 37.0921 99.292 36.6538C99.292 36.2156 99.3724 35.7773 99.5331 35.4187C99.6938 35.0203 99.8947 34.7016 100.136 34.4227C100.377 34.1438 100.739 33.9446 101.1 33.7852C101.462 33.6259 101.904 33.5462 102.346 33.5462C102.788 33.5462 103.23 33.6259 103.592 33.7852C103.953 33.9446 104.275 34.1438 104.556 34.4227C104.837 34.7016 105.038 35.0203 105.159 35.4187C105.279 35.7773 105.36 36.2156 105.36 36.6538ZM104.435 36.6538C104.435 36.2953 104.395 35.9765 104.275 35.6976C104.194 35.4187 104.034 35.1797 103.833 34.9805C103.632 34.7813 103.431 34.6219 103.15 34.5024C102.908 34.3829 102.587 34.343 102.266 34.343C101.944 34.343 101.663 34.3829 101.381 34.5024C101.1 34.6219 100.899 34.7813 100.698 34.9805C100.497 35.1797 100.377 35.4187 100.256 35.6976C100.176 35.9765 100.096 36.2953 100.096 36.6538C100.096 37.0124 100.136 37.3311 100.256 37.6499C100.337 37.9288 100.497 38.1678 100.698 38.367C100.899 38.5662 101.1 38.7256 101.381 38.8451C101.623 38.9646 101.944 39.0045 102.266 39.0045C102.587 39.0045 102.868 38.9646 103.15 38.8451C103.431 38.7256 103.632 38.5662 103.833 38.367C104.034 38.1678 104.154 37.9288 104.275 37.6499C104.395 37.3311 104.435 37.0124 104.435 36.6538Z" fill="white"/>
<path d="M112.391 33.5854V39.6812H111.909C111.829 39.6812 111.788 39.6812 111.748 39.6414C111.708 39.6015 111.668 39.5617 111.587 39.5219L108.132 35.0596C108.132 35.1393 108.132 35.219 108.132 35.2986C108.132 35.3783 108.132 35.458 108.132 35.4979V39.6812H107.328V33.5854H107.81C107.891 33.5854 107.931 33.5855 107.971 33.6253C108.011 33.6253 108.051 33.705 108.092 33.7448L111.587 38.2071C111.587 38.1274 111.587 38.0477 111.587 37.968C111.587 37.8883 111.587 37.8087 111.587 37.7688V33.6253H112.391V33.5854Z" fill="white"/>
<path d="M119.825 39.6821H119.141C119.061 39.6821 118.981 39.6821 118.941 39.6423C118.9 39.6024 118.86 39.5626 118.82 39.4829L118.257 38.0884H115.565L115.003 39.4829C115.003 39.5227 114.962 39.6024 114.882 39.6423C114.842 39.6821 114.762 39.7219 114.681 39.7219H113.998L116.449 33.6262H117.373L119.825 39.6821ZM118.056 37.4111L117.132 35.0605C117.052 34.9011 117.012 34.7019 116.931 34.4628C116.891 34.5824 116.851 34.7019 116.851 34.8214C116.811 34.9409 116.771 35.0206 116.771 35.1003L115.846 37.451H118.056V37.4111Z" fill="white"/>
<path d="M124.969 38.9242V39.6812H121.473V33.5854H122.397V38.9242H124.969Z" fill="white"/>
<path d="M134.491 36.7335V39.124C134.17 39.363 133.848 39.5224 133.486 39.6021C133.125 39.7216 132.763 39.7615 132.321 39.7615C131.839 39.7615 131.357 39.6818 130.995 39.5224C130.593 39.363 130.272 39.1638 129.95 38.885C129.669 38.6061 129.468 38.2873 129.308 37.8889C129.147 37.4905 129.066 37.0921 129.066 36.614C129.066 36.1359 129.147 35.7375 129.267 35.339C129.428 34.9406 129.629 34.6219 129.91 34.343C130.192 34.0641 130.513 33.8649 130.915 33.7055C131.317 33.5462 131.759 33.4665 132.241 33.4665C132.482 33.4665 132.723 33.4665 132.924 33.5063C133.125 33.5462 133.326 33.586 133.527 33.6657C133.687 33.7454 133.888 33.8251 134.009 33.9048C134.17 33.9844 134.29 34.104 134.451 34.2235L134.21 34.6219C134.17 34.7016 134.129 34.7414 134.049 34.7414C133.969 34.7414 133.928 34.7414 133.848 34.7016C133.768 34.6617 133.687 34.6219 133.607 34.5422C133.527 34.4625 133.406 34.4227 133.286 34.3828C133.165 34.343 133.004 34.3032 132.844 34.2633C132.683 34.2235 132.482 34.2235 132.241 34.2235C131.919 34.2235 131.598 34.2633 131.317 34.3828C131.035 34.5024 130.834 34.6617 130.634 34.8609C130.433 35.0602 130.312 35.2992 130.192 35.5781C130.071 35.857 130.031 36.1757 130.031 36.5343C130.031 36.8929 130.071 37.2514 130.192 37.5303C130.312 37.8092 130.473 38.0881 130.634 38.2873C130.834 38.4865 131.076 38.6459 131.357 38.7654C131.638 38.8849 131.96 38.9248 132.321 38.9248C132.442 38.9248 132.602 38.9248 132.723 38.885C132.844 38.885 132.964 38.8451 133.044 38.8053C133.165 38.7654 133.245 38.7256 133.366 38.6857C133.486 38.6459 133.567 38.6061 133.687 38.5264V37.2514H132.763C132.723 37.2514 132.643 37.2514 132.643 37.2116C132.602 37.1718 132.602 37.1319 132.602 37.0921V36.5741H134.491V36.7335Z" fill="white"/>
<path d="M141.202 39.6812H140.398C140.238 39.6812 140.117 39.6015 140.037 39.482L138.51 37.3704C138.47 37.2907 138.389 37.2509 138.349 37.211C138.309 37.1712 138.188 37.1712 138.108 37.1712H137.505V39.6812H136.581V33.5854H138.349C138.751 33.5854 139.072 33.6253 139.394 33.705C139.675 33.7847 139.916 33.9042 140.117 34.0636C140.318 34.2229 140.439 34.3823 140.519 34.5815C140.599 34.7807 140.639 35.0198 140.639 35.2986C140.639 35.4979 140.599 35.6971 140.559 35.8963C140.479 36.0955 140.398 36.2548 140.278 36.4142C140.157 36.5736 139.997 36.6931 139.796 36.8126C139.595 36.9322 139.394 37.0118 139.193 37.0517C139.313 37.1314 139.394 37.211 139.474 37.3306L141.202 39.6812ZM138.309 36.5337C138.55 36.5337 138.751 36.4939 138.912 36.4541C139.072 36.4142 139.233 36.3345 139.354 36.215C139.474 36.0955 139.555 35.976 139.635 35.8564C139.675 35.6971 139.715 35.5377 139.715 35.3783C139.715 35.0197 139.595 34.7807 139.354 34.5815C139.113 34.4221 138.791 34.3026 138.309 34.3026H137.465V36.5337H138.309Z" fill="white"/>
<path d="M148.475 36.6538C148.475 37.0921 148.394 37.5304 148.274 37.8889C148.113 38.2873 147.912 38.6061 147.671 38.885C147.39 39.1639 147.068 39.3631 146.707 39.5224C146.345 39.6818 145.903 39.7615 145.461 39.7615C145.019 39.7615 144.577 39.6818 144.215 39.5224C143.854 39.3631 143.532 39.1639 143.251 38.885C142.97 38.6061 142.769 38.2873 142.648 37.8889C142.488 37.4905 142.407 37.0921 142.407 36.6538C142.407 36.2156 142.488 35.7773 142.648 35.4187C142.809 35.0203 143.01 34.7016 143.251 34.4227C143.492 34.1438 143.854 33.9446 144.215 33.7852C144.577 33.6259 145.019 33.5462 145.461 33.5462C145.903 33.5462 146.345 33.6259 146.707 33.7852C147.068 33.9446 147.39 34.1438 147.671 34.4227C147.952 34.7016 148.153 35.0203 148.274 35.4187C148.435 35.7773 148.475 36.2156 148.475 36.6538ZM147.551 36.6538C147.551 36.2953 147.51 35.9765 147.39 35.6976C147.309 35.4187 147.149 35.1797 146.948 34.9805C146.747 34.7813 146.546 34.6219 146.265 34.5024C146.024 34.3829 145.702 34.343 145.381 34.343C145.059 34.343 144.778 34.3829 144.497 34.5024C144.215 34.6219 144.015 34.7813 143.814 34.9805C143.613 35.1797 143.492 35.4187 143.372 35.6976C143.291 35.9765 143.211 36.2953 143.211 36.6538C143.211 37.0124 143.251 37.3311 143.372 37.6499C143.452 37.9288 143.613 38.1678 143.814 38.367C144.015 38.5662 144.215 38.7256 144.497 38.8451C144.738 38.9646 145.059 39.0045 145.381 39.0045C145.702 39.0045 145.983 38.9646 146.265 38.8451C146.546 38.7256 146.747 38.5662 146.948 38.367C147.149 38.1678 147.269 37.9288 147.39 37.6499C147.51 37.3311 147.551 37.0124 147.551 36.6538Z" fill="white"/>
<path d="M152.895 38.9641C153.136 38.9641 153.378 38.9242 153.538 38.8446C153.739 38.7649 153.9 38.6454 154.02 38.486C154.141 38.3266 154.262 38.1672 154.342 37.968C154.422 37.7688 154.462 37.5298 154.462 37.2907V33.5854H155.387V37.2907C155.387 37.6493 155.346 37.968 155.226 38.2868C155.105 38.6055 154.945 38.8446 154.744 39.0836C154.543 39.3227 154.262 39.482 153.98 39.6015C153.659 39.7211 153.337 39.8008 152.935 39.8008C152.534 39.8008 152.212 39.7211 151.891 39.6015C151.569 39.482 151.328 39.3227 151.127 39.0836C150.926 38.8446 150.766 38.6055 150.645 38.2868C150.525 37.968 150.484 37.6493 150.484 37.2907V33.5854H151.409V37.2509C151.409 37.4899 151.449 37.729 151.529 37.9282C151.609 38.1274 151.69 38.3266 151.851 38.4461C151.971 38.6055 152.132 38.725 152.333 38.8047C152.413 38.9242 152.654 38.9641 152.895 38.9641Z" fill="white"/>
<path d="M159.525 33.5854C159.927 33.5854 160.249 33.6253 160.57 33.705C160.851 33.7847 161.092 33.9042 161.293 34.1034C161.494 34.2628 161.615 34.462 161.735 34.701C161.816 34.9401 161.856 35.1791 161.856 35.4979C161.856 35.7767 161.816 36.0556 161.695 36.2947C161.615 36.5337 161.454 36.7329 161.253 36.9321C161.052 37.0915 160.811 37.2509 160.53 37.3306C160.249 37.4102 159.927 37.4899 159.525 37.4899H158.561V39.7211H157.637V33.6253H159.525V33.5854ZM159.525 36.7329C159.766 36.7329 159.967 36.6931 160.128 36.6533C160.289 36.6134 160.449 36.4939 160.57 36.4142C160.691 36.2947 160.771 36.1752 160.851 36.0158C160.892 35.8564 160.932 35.6971 160.932 35.4979C160.932 35.1393 160.811 34.8205 160.57 34.6213C160.329 34.4221 159.967 34.3026 159.525 34.3026H158.561V36.7329H159.525Z" fill="white"/>
<path d="M162.217 27.2911H47.7773V27.809H162.217V27.2911Z" fill="#BB8B41"/>
</svg>
